# xmcd
#
# Track frame offsets: 
#        150
#        9048
#        23578
#        39952
#        52098
#        61537
#        72053
#        90137
#        104069
#        118643
#        134330
#
# Disc length: 1928 seconds
#
# Revision: 0
# Processed by: cddbd v1.5.1PL2 Copyright (c) Steve Scherf et al.
# Submitted via: ExactAudioCopy v0.95b3
#
DISCID=7b07860b
DTITLE=Hickory Hill - Freedom
DYEAR=2002
DGENRE=Bluegrass
TTITLE0=The Ballad of John and Maggie
TTITLE1=The Sweetest Song I Sing
TTITLE2=Freedom
TTITLE3=Leaning on the Everlasting Arms
TTITLE4=Homegrown Tomatoes
TTITLE5=See The Light
TTITLE6=Songs About Texas
TTITLE7=Abby's Song
TTITLE8=Lost and Found
TTITLE9=Long Hard Road
TTITLE10=Where Will You Go
EXTD=
EXTT0=
EXTT1=
EXTT2=
EXTT3=
EXTT4=
EXTT5=
EXTT6=
EXTT7=
EXTT8=
EXTT9=
EXTT10=
PLAYORDER=
